<svg width="30" height="36" viewBox="0 0 30 36" fill="none" xmlns="http://www.w3.org/2000/svg">
<path d="M11.6667 3.27273H3.33333C1.5 3.27273 0 4.74545 0 6.54545V29.4545C0 31.2545 1.5 32.7273 3.33333 32.7273H11.6667V34.3636C11.6667 35.2636 12.4167 36 13.3333 36C14.25 36 15 35.2636 15 34.3636V1.63636C15 0.736364 14.25 0 13.3333 0C12.4167 0 11.6667 0.736364 11.6667 1.63636V3.27273ZM11.6667 27.8182H3.33333L11.6667 18V27.8182ZM26.6667 3.27273H18.3333V6.54545H25C25.9167 6.54545 26.6667 7.28182 26.6667 8.18182V27.8182L18.3333 18V32.7273H26.6667C28.5 32.7273 30 31.2545 30 29.4545V6.54545C30 4.74545 28.5 3.27273 26.6667 3.27273Z" fill="#B82325"/>
</svg>
