<svg width="18" height="18" viewBox="0 0 18 18" fill="none" xmlns="http://www.w3.org/2000/svg">
<path d="M14.4372 7.2893L12.9065 2.09109C12.8722 1.97463 12.8011 1.87239 12.7039 1.79965C12.6067 1.7269 12.4886 1.68756 12.3672 1.6875H5.63266C5.51125 1.68756 5.39312 1.7269 5.29592 1.79965C5.19872 1.87239 5.12766 1.97463 5.09336 2.09109L3.56266 7.2893C3.3225 8.08605 3.30993 8.93408 3.52637 9.73759C3.74282 10.5411 4.17964 11.2681 4.78751 11.8364C5.78748 12.774 7.07221 13.3504 8.43743 13.474V16.3125H6.18743C6.03824 16.3125 5.89517 16.3718 5.78968 16.4773C5.68419 16.5827 5.62493 16.7258 5.62493 16.875C5.62493 17.0242 5.68419 17.1673 5.78968 17.2727C5.89517 17.3782 6.03824 17.4375 6.18743 17.4375H11.8124C11.9616 17.4375 12.1047 17.3782 12.2102 17.2727C12.3157 17.1673 12.3749 17.0242 12.3749 16.875C12.3749 16.7258 12.3157 16.5827 12.2102 16.4773C12.1047 16.3718 11.9616 16.3125 11.8124 16.3125H9.56243V13.474C10.9277 13.3505 12.2124 12.7741 13.2123 11.8364C13.8201 11.268 14.2568 10.541 14.4732 9.73753C14.6897 8.93405 14.6772 8.08606 14.4372 7.2893ZM6.05313 2.8125H11.9467L13.3593 7.60711C13.3656 7.6282 13.3713 7.6493 13.3769 7.67039C11.8708 8.21039 10.1748 7.55789 9.25446 7.09172C7.48329 6.19523 6.07704 6.08133 5.03993 6.25289L6.05313 2.8125Z" fill="black"/>
</svg>
