<svg width="214" height="50" viewBox="0 0 214 50" fill="none" xmlns="http://www.w3.org/2000/svg">
<path fill-rule="evenodd" clip-rule="evenodd" d="M65.7219 11.1375C65.1176 11.3353 64.744 11.5665 64.3751 11.9709C63.3189 13.1289 63.3462 14.9239 64.4368 16.0354C64.9682 16.5771 65.6149 16.8555 66.4409 16.8985C67.875 16.9731 68.8996 16.393 69.4676 15.185C69.7401 14.6053 69.769 13.5714 69.5316 12.8956C69.3132 12.2739 68.633 11.5695 67.9626 11.2707C67.2784 10.966 66.4051 10.9141 65.7219 11.1375ZM159.284 25.1923V37.7529H161.821H164.357L164.36 35.5085L164.364 33.264L165.711 31.807C166.91 30.5112 167.071 30.3654 167.167 30.4892C167.226 30.5657 168.274 32.2302 169.495 34.1879L171.716 37.7476L174.694 37.7502C177.054 37.7523 177.658 37.7316 177.609 37.65C177.574 37.5934 176 35.0901 174.11 32.0873L170.674 26.6276L174.001 23.0327C175.831 21.0556 177.329 19.4076 177.329 19.3705C177.329 19.3336 176.061 19.3033 174.511 19.3033H171.693L168.046 23.2244L164.398 27.1455L164.377 19.8886L164.356 12.6317H161.82H159.284V25.1923ZM100.713 19.2681C98.3161 19.6372 96.2347 20.8034 94.9453 22.4995C93.6592 24.1911 93.0687 26.0811 93.0617 28.5281C93.0549 30.9087 93.5401 32.7146 94.6161 34.314C96.2148 36.6906 98.9676 38 102.365 38C105.583 38 108.21 36.8305 109.846 34.6695C110.477 33.8364 111.128 32.2977 111.339 31.1432L111.395 30.8343H108.699H106.004L105.953 31.1432C105.803 32.0514 104.96 33.1367 104.104 33.5249C103.11 33.9757 101.768 33.9679 100.781 33.5057C99.1126 32.7238 98.1239 30.5878 98.2762 28.0936C98.3717 26.5305 98.8207 25.3555 99.6639 24.4627C101.071 22.9723 103.487 22.842 104.95 24.1777C105.333 24.5276 105.854 25.4482 105.947 25.9394L106.001 26.2219H108.686H111.371L111.22 25.5424C110.45 22.0607 107.97 19.8026 104.32 19.2575C103.345 19.1119 101.695 19.1168 100.713 19.2681ZM122.915 19.2627C118.847 19.919 116.048 22.6267 115.337 26.5928C115.158 27.5944 115.157 29.4117 115.336 30.4636C116.155 35.2821 119.989 38.1926 125.233 37.9753C128.025 37.8594 130.202 36.9453 131.899 35.1755C133.581 33.4219 134.458 30.806 134.308 27.9927C134.178 25.5598 133.387 23.557 131.948 22.0214C130.668 20.6555 129.189 19.8333 127.187 19.3732C126.232 19.1539 123.954 19.095 122.915 19.2627ZM59 21.4447V23.5862H61.5362H64.0724V28.5281V33.4699H61.5362H59V35.6114V37.7529H66.6101H74.2201L74.1979 35.632L74.1757 33.5111L71.7019 33.4893L69.228 33.4675V26.3854V19.3033H64.114H59V21.4447ZM138.302 19.3574C138.272 19.388 138.246 20.352 138.246 21.4997V23.5862H140.117H141.988V28.5265V33.4668L140.138 33.489L138.288 33.5111L138.266 35.632L138.243 37.7529H145.23H152.216V35.6114V33.4699H149.674H147.131L147.166 30.4431C147.195 27.8769 147.223 27.341 147.346 26.922C147.668 25.8258 148.384 24.8718 149.188 24.4683C150.072 24.0252 150.371 23.9783 152.571 23.9363L154.63 23.8972L154.608 21.6208L154.586 19.3444L152.965 19.359C151.102 19.3757 150.45 19.4968 149.389 20.0233C148.664 20.3832 147.76 21.2135 147.259 21.9801L146.936 22.4743L146.853 20.9094L146.77 19.3444L142.564 19.3231C140.251 19.3113 138.333 19.3268 138.302 19.3574ZM196.538 25.1717C196.539 31.4036 196.56 31.8266 196.952 33.2085C197.43 34.8926 198.411 36.2356 199.743 37.0325C200.406 37.4282 201.553 37.8015 202.483 37.9235C203.391 38.0427 204.852 37.9788 205.601 37.7873C206.711 37.5038 207.801 36.8786 208.591 36.072C208.795 35.864 208.985 35.6938 209.013 35.6938C209.041 35.6938 209.152 36.1571 209.26 36.7233L209.457 37.7529H211.728H214V28.5281V19.3033H211.47H208.94L208.904 24.5952C208.872 29.1629 208.848 29.966 208.729 30.4636C208.56 31.1641 208.19 31.9695 207.83 32.42C207.183 33.229 205.931 33.7073 204.723 33.6063C203.154 33.4748 202.3 32.7347 201.84 31.1081C201.662 30.479 201.657 30.3314 201.63 24.8834L201.601 19.3033H199.07H196.538L196.538 25.1717ZM125.766 23.3837C127.223 23.7239 128.3 24.8447 128.848 26.5925C129.082 27.3386 129.164 28.8458 129.019 29.739C128.641 32.0687 127.323 33.5355 125.35 33.8202C123.122 34.142 121.262 32.7878 120.605 30.3637C120.357 29.4501 120.357 27.6865 120.606 26.7703C121.307 24.1835 123.376 22.8257 125.766 23.3837ZM82.2528 25.3641C80.804 25.7115 79.627 26.8674 79.2827 28.281C79.1239 28.9331 79.1609 29.9457 79.3676 30.5995C79.5765 31.2605 80.0924 32.0501 80.5669 32.4353C81.0148 32.7988 81.8548 33.1915 82.4438 33.3125C83.1048 33.4485 84.3664 33.3627 85.0162 33.1376C86.0247 32.7882 86.9986 31.8675 87.3652 30.9166C88.303 28.4844 87.0463 25.9993 84.5531 25.3561C83.9663 25.2048 82.9023 25.2085 82.2528 25.3641ZM184.961 25.3614C183.838 25.6311 182.775 26.4362 182.297 27.3801C182.047 27.8721 181.822 28.7884 181.822 29.3105C181.822 29.8323 182.047 30.7487 182.297 31.242C182.601 31.8431 183.404 32.6343 183.995 32.9151C184.988 33.3865 186.251 33.5223 187.249 33.2649C189.643 32.6474 190.913 30.28 190.12 27.9148C189.459 25.9439 187.197 24.8245 184.961 25.3614Z" fill="black"/>
<path d="M0 11.5156C0 9.17729 0 8.00812 0.216003 7.04005C0.975766 3.63499 3.63499 0.975766 7.04005 0.216003C8.00812 0 9.1773 0 11.5156 0H33.5368C38.8322 0 41.4799 0 43.4805 1.07943C45.0258 1.91326 46.2935 3.18094 47.1273 4.72629C48.2068 6.72683 48.2068 9.37455 48.2068 14.67V35.5171C48.2068 37.8151 47.4813 40.0545 46.1338 41.916C45.3702 42.9708 44.424 43.8804 43.34 44.6018L42.3418 45.2661C39.4603 47.1837 36.0762 48.2068 32.6149 48.2068H14.7379H8.18566C3.66485 48.2068 0 44.5419 0 40.0211V11.5156Z" fill="#F64646"/>
<path d="M40.5542 46.1732L48.0058 36.8647C48.0058 36.8647 48.0715 39.5797 48.0715 42.8765C48.0715 46.1732 50.1076 47.7246 51.4211 47.7246C46.5848 52.0827 40.5542 46.1732 40.5542 46.1732Z" fill="#F64646"/>
<path d="M21.7787 17.2872V9.64136H27.1865V17.2872C29.0972 17.9547 32.9188 20.1634 32.9188 23.6587V46.4991C32.9188 47.4422 31.7101 48.2068 30.2192 48.2068H18.746H16.0464V46.4991V23.6587C16.0464 20.1634 19.8679 17.9547 21.7787 17.2872Z" fill="black"/>
<path d="M19.2603 33.343H32.9188V48.2068H19.2603V33.343Z" fill="white"/>
<path d="M21.7791 8.3279C21.7791 6.83464 22.9896 5.62411 24.4828 5.62411C25.976 5.62411 27.1864 6.83441 27.1866 8.32752L27.1873 13.2569H21.7791L21.7791 8.3279Z" fill="white"/>
<mask id="mask0_5422_141" style="mask-type:alpha" maskUnits="userSpaceOnUse" x="21" y="33" width="12" height="16">
<path d="M21.2688 33.343H32.9188V48.2067H21.2688V33.343Z" fill="white"/>
</mask>
<g mask="url(#mask0_5422_141)">
<ellipse cx="28.7717" cy="44.8381" rx="5.42279" ry="5.9401" fill="#F64646"/>
</g>
</svg>
