<svg width="153" height="27" viewBox="0 0 153 27" fill="none" xmlns="http://www.w3.org/2000/svg">
<path fill-rule="evenodd" clip-rule="evenodd" d="M6.63514 0.137549C6.03866 0.335306 5.66986 0.566503 5.30575 0.970913C4.26315 2.12888 4.29007 3.92393 5.36666 5.03544C5.89124 5.57707 6.52959 5.85554 7.3449 5.89854C8.76048 5.97308 9.77189 5.39298 10.3325 4.18502C10.6015 3.60534 10.6301 2.57142 10.3957 1.89562C10.1802 1.27385 9.50865 0.569469 8.84691 0.270732C8.17163 -0.0340163 7.30953 -0.085906 6.63514 0.137549ZM98.9903 14.1923V26.7529H101.494H103.997L104.001 24.5085L104.004 22.264L105.335 20.807C106.518 19.5112 106.677 19.3654 106.771 19.4892C106.83 19.5657 107.864 21.2302 109.07 23.1879L111.262 26.7476L114.201 26.7502C116.531 26.7523 117.127 26.7316 117.078 26.65C117.044 26.5934 115.49 24.0901 113.625 21.0873L110.233 15.6276L113.517 12.0327C115.324 10.0556 116.802 8.40761 116.802 8.37054C116.802 8.33356 115.55 8.30325 114.021 8.30325H111.239L107.639 12.2244L104.038 16.1455L104.017 8.88862L103.996 1.63172H101.493H98.9903V14.1923ZM41.1745 8.26808C38.8088 8.63724 36.7542 9.80344 35.4815 11.4995C34.212 13.1911 33.6291 15.0811 33.6222 17.5281C33.6155 19.9087 34.0944 21.7146 35.1565 23.314C36.7346 25.6906 39.4519 27 42.8055 27C45.9823 27 48.5754 25.8305 50.1901 23.6695C50.8126 22.8364 51.4554 21.2977 51.6632 20.1432L51.7188 19.8343H49.0579H46.3971L46.3467 20.1432C46.1987 21.0514 45.3675 22.1367 44.5224 22.5249C43.5411 22.9757 42.2158 22.9679 41.242 22.5057C39.595 21.7238 38.6191 19.5878 38.7694 17.0936C38.8636 15.5305 39.3069 14.3555 40.1392 13.4627C41.5286 11.9723 43.9127 11.842 45.3566 13.1777C45.735 13.5276 46.2497 14.4482 46.3415 14.9394L46.3944 15.2219H49.0447H51.6951L51.5466 14.5424C50.7859 11.0607 48.3384 8.80263 44.7348 8.25754C43.7724 8.11192 42.1442 8.11678 41.1745 8.26808ZM63.0903 8.26273C59.0749 8.91901 56.3118 11.6267 55.6102 15.5928C55.4329 16.5944 55.4324 18.4117 55.6088 19.4636C56.4172 24.2821 60.2025 27.1926 65.3779 26.9753C68.1347 26.8594 70.2833 25.9453 71.9587 24.1755C73.6187 22.4219 74.4846 19.806 74.3365 16.9927C74.2084 14.5598 73.4268 12.557 72.0064 11.0214C70.7429 9.65551 69.2837 8.83327 67.3069 8.37318C66.3648 8.15392 64.1162 8.09503 63.0903 8.26273ZM0 10.4447V12.5862H2.50349H5.00697V17.5281V22.4699H2.50349H0V24.6114V26.7529H7.51186H15.0237L15.0018 24.632L14.9799 22.5111L12.538 22.4893L10.096 22.4675V15.3854V8.30325H5.04801H0V10.4447ZM78.2792 8.35745C78.2487 8.388 78.2237 9.352 78.2237 10.4997V12.5862H80.0705H81.9174V17.5265V22.4668L80.0911 22.489L78.2647 22.5111L78.2428 24.632L78.2209 26.7529H85.1172H92.0134V24.6114V22.4699H89.5037H86.994L87.0282 19.4431C87.0572 16.8769 87.0842 16.341 87.2056 15.922C87.5235 14.8258 88.2309 13.8718 89.0247 13.4683C89.8968 13.0252 90.1916 12.9783 92.3636 12.9363L94.3963 12.8972L94.3746 10.6208L94.3527 8.34443L92.7521 8.35901C90.9134 8.37573 90.2701 8.49681 89.2226 9.02328C88.5066 9.38321 87.6143 10.2135 87.12 10.9801L86.8012 11.4743L86.7191 9.90936L86.6371 8.34443L82.4859 8.3231C80.2027 8.31132 78.3097 8.32681 78.2792 8.35745ZM135.763 14.1717C135.764 20.4036 135.785 20.8266 136.172 22.2085C136.644 23.8926 137.612 25.2356 138.927 26.0325C139.581 26.4282 140.714 26.8015 141.632 26.9235C142.528 27.0427 143.97 26.9788 144.71 26.7873C145.805 26.5038 146.881 25.8786 147.661 25.072C147.863 24.864 148.05 24.6938 148.077 24.6938C148.105 24.6938 148.214 25.1571 148.321 25.7233L148.516 26.7529H150.758H153V17.5281V8.30325H150.503H148.006L147.969 13.5952C147.938 18.1629 147.915 18.966 147.797 19.4636C147.63 20.1641 147.265 20.9695 146.91 21.42C146.271 22.229 145.035 22.7073 143.843 22.6063C142.294 22.4748 141.451 21.7347 140.997 20.1081C140.821 19.479 140.816 19.3314 140.789 13.8834L140.761 8.30325H138.262H135.763L135.763 14.1717ZM65.9043 12.3837C67.3428 12.7239 68.4054 13.8447 68.9467 15.5925C69.1777 16.3386 69.2587 17.8458 69.1157 18.739C68.7428 21.0687 67.4412 22.5355 65.4943 22.8202C63.2941 23.142 61.4588 21.7878 60.8096 19.3637C60.565 18.4501 60.5655 16.6865 60.8108 15.7703C61.5033 13.1835 63.5455 11.8257 65.9043 12.3837ZM22.9528 14.3641C21.5227 14.7115 20.3608 15.8674 20.021 17.281C19.8642 17.9331 19.9008 18.9457 20.1048 19.5995C20.311 20.2605 20.8202 21.0501 21.2886 21.4353C21.7308 21.7988 22.5599 22.1915 23.1413 22.3125C23.7938 22.4485 25.0391 22.3627 25.6805 22.1376C26.676 21.7882 27.6373 20.8675 27.9992 19.9166C28.9249 17.4844 27.6844 14.9993 25.2234 14.3561C24.6442 14.2048 23.5938 14.2085 22.9528 14.3641ZM124.336 14.3614C123.227 14.6311 122.178 15.4362 121.706 16.3801C121.46 16.8721 121.237 17.7884 121.237 18.3105C121.237 18.8323 121.46 19.7487 121.706 20.242C122.006 20.8431 122.799 21.6343 123.383 21.9151C124.362 22.3865 125.609 22.5223 126.594 22.2649C128.957 21.6474 130.211 19.28 129.428 16.9148C128.776 14.9439 126.543 13.8245 124.336 14.3614Z" fill="white"/>
</svg>
