<svg width="113" height="140" viewBox="0 0 113 140" fill="none" xmlns="http://www.w3.org/2000/svg">
<path d="M105.369 40.7813C105.369 26.0604 105.369 18.7 102.369 13.1387C100.051 8.84273 96.5267 5.31869 92.2307 3.00072C86.6694 0 79.309 0 64.5881 0H40.7813C26.0604 0 18.7 0 13.1387 3.00072C8.84273 5.31869 5.31869 8.84273 3.00072 13.1387C0 18.7 0 26.0604 0 40.7813V109.703L0.54872 114.227C0.60361 114.679 0.631055 114.906 0.660513 115.118C1.80188 123.346 6.9528 130.471 14.4083 134.135C14.6007 134.23 14.807 134.327 15.2195 134.521C15.3902 134.601 15.4755 134.641 15.5602 134.68C18.7885 136.169 22.2972 136.953 25.8523 136.979C25.9455 136.98 26.0398 136.98 26.2284 136.98H64.5881C79.309 136.98 86.6694 136.98 92.2307 133.979C96.5267 131.661 100.051 128.137 102.369 123.842C105.369 118.28 105.369 110.92 105.369 96.1989V40.7813Z" fill="#F9DCCC"/>
<path d="M89.3932 129.549L105.577 109.333C105.577 109.333 105.72 115.229 105.72 122.389C105.72 129.549 110.142 132.919 112.995 132.919C102.491 142.384 89.3932 129.549 89.3932 129.549Z" fill="#F9DCCC"/>
<path d="M31.2085 21.8569C27.4973 32.434 23.8647 42.8907 23.8647 56.1862C23.8647 82.7217 50.3644 78.0539 50.3644 95.6682V130.711C49.7183 134.116 46.7254 136.686 43.1309 136.686H41.1714C39.4641 136.686 38.0799 138.07 38.0799 139.778H53.5752V21.8569H31.2085Z" fill="white"/>
<path d="M75.3286 21.8567C79.0398 32.4338 82.6724 42.8904 82.6724 56.1859C82.6724 82.7215 56.1727 78.0536 56.1727 95.668V130.71C56.8188 134.116 59.8117 136.686 63.4062 136.686H65.3657C67.0731 136.686 68.4572 138.07 68.4572 139.778H52.962V21.8567H75.3286Z" fill="white"/>
<path d="M61.3419 78.645C57.9324 80.7774 55.8728 83.5565 54.9192 85.5006C54.5744 86.2035 53.8897 86.7207 53.1073 86.7207C52.3248 86.7207 51.6402 86.2035 51.2954 85.5006C50.3418 83.5565 48.2822 80.7774 44.8727 78.645C35.9391 73.0574 27.4568 68.8334 27.4568 57.4191C27.4568 54.1509 29.0401 51.0079 29.0401 51.0079C29.0401 51.0079 32.4802 55.5426 40.9242 55.5426C50.0443 55.5426 53.1904 44.2058 65.4743 44.2058C77.1169 44.2058 78.7432 53.588 78.7432 57.4191C78.7432 70.7047 66.612 75.3488 61.3419 78.645Z" fill="#770F10"/>
<path d="M44.872 78.9577C48.2814 81.0902 50.3411 83.8693 51.2947 85.8134C51.6395 86.5163 52.3241 87.0334 53.1066 87.0334C53.889 87.0334 54.5737 86.5163 54.9185 85.8134C55.8721 83.8693 57.9317 81.0902 61.3412 78.9577C70.2747 73.3702 78.757 69.1461 78.757 57.7318C78.757 53.9958 77.657 51.66 77.657 51.66C77.657 51.66 73.7337 55.8554 65.2897 55.8554C56.1695 55.8554 53.0234 44.5186 40.7396 44.5186C29.097 44.5186 27.4707 53.9008 27.4707 57.7318C27.4707 71.0174 39.6019 75.6615 44.872 78.9577Z" fill="#F64646"/>
</svg>
